<?xml version="1.0" encoding="UTF-8" standalone="no"?>
<svg
   xmlns:dc="http://purl.org/dc/elements/1.1/"
   xmlns:cc="http://creativecommons.org/ns#"
   xmlns:rdf="http://www.w3.org/1999/02/22-rdf-syntax-ns#"
   xmlns:svg="http://www.w3.org/2000/svg"
   xmlns="http://www.w3.org/2000/svg"
   xmlns:xlink="http://www.w3.org/1999/xlink"
   xmlns:sodipodi="http://sodipodi.sourceforge.net/DTD/sodipodi-0.dtd"
   xmlns:inkscape="http://www.inkscape.org/namespaces/inkscape"
   width="24"
   height="21"
   viewBox="0 0 24 21"
   version="1.1"
   id="svg3737"
   sodipodi:docname="heart.svg"
   inkscape:version="0.92.3 (2405546, 2018-03-11)">
  <metadata
     id="metadata3741">
    <rdf:RDF>
      <cc:Work
         rdf:about="">
        <dc:format>image/svg+xml</dc:format>
        <dc:type
           rdf:resource="http://purl.org/dc/dcmitype/StillImage" />
      </cc:Work>
    </rdf:RDF>
  </metadata>
  <sodipodi:namedview
     pagecolor="#ffffff"
     bordercolor="#666666"
     borderopacity="1"
     objecttolerance="10"
     gridtolerance="10"
     guidetolerance="10"
     inkscape:pageopacity="0"
     inkscape:pageshadow="2"
     inkscape:window-width="1920"
     inkscape:window-height="1017"
     id="namedview3739"
     showgrid="false"
     inkscape:zoom="2.5238095"
     inkscape:cx="147.00211"
     inkscape:cy="96.890266"
     inkscape:window-x="-8"
     inkscape:window-y="-8"
     inkscape:window-maximized="1"
     inkscape:current-layer="svg3737" />
  <defs
     id="defs3729">
    <path
       id="mj26a"
       d="M656.2 898.3L645.99 909l-10.22-10.7a6.1 6.1 0 0 1 0-8.56 5.96 5.96 0 0 1 8.48 0l1.74 2.14 1.75-2.14a5.96 5.96 0 0 1 8.48 0 6.1 6.1 0 0 1 0 8.56zm-6.48-8.21l-3.74 3.3-2.74-3.3a4.77 4.77 0 0 0-7.2 1c-1.13 1.7-1.44 3.84 0 5.3l9.94 10.61 9.94-10.61a3.8 3.8 0 0 0 0-5.3c-1.44-1.47-4.77-2.47-6.2-1z" />
  </defs>
  <g
     id="g3735">
    <g
       transform="translate(-634 -888)"
       id="g3733">
      <use
         fill="#333"
         xlink:href="#mj26a"
         id="use3731" />
    </g>
  </g>
  <path
     style="fill:#ff0000;stroke-width:0.02476415"
     d="M 6.9366588,13.598287 C 4.1634483,10.638052 1.8502457,8.1605128 1.7962084,8.0926449 1.5165712,7.7414353 1.2842471,7.2631771 1.178549,6.8211422 0.91492165,5.7186395 1.2239709,4.363352 2.013429,3.1599057 2.2665307,2.7740787 2.3882068,2.6187533 2.6509679,2.3460569 4.1475928,0.79284211 6.5219306,0.44514859 8.396816,1.5046457 c 0.2843759,0.1607007 0.6851055,0.4527097 0.8328662,0.6069041 0.063088,0.065835 0.6962362,0.8217639 1.4069958,1.6798417 0.710759,0.8580778 1.306544,1.5701386 1.323966,1.5823572 0.02256,0.015819 0.547931,-0.4329655 1.824726,-1.5587158 0.986178,-0.8695125 1.871057,-1.6529447 1.966399,-1.7409606 0.427801,-0.3949285 0.9128,-0.6007051 1.58946,-0.6743796 1.394144,-0.1517938 3.358277,0.5508959 4.458335,1.5950176 1.075127,1.0204582 1.452494,2.5381213 0.982749,3.9523354 C 22.672281,7.278306 22.442514,7.7208991 22.241439,7.9889151 22.12713,8.1412798 13.981686,16.867543 12.147302,18.802825 l -0.168443,0.177708 z"
     id="path3745"
     inkscape:connector-curvature="0" />
</svg>
